<svg xmlns="http://www.w3.org/2000/svg" width="668" height="150" fill="none" xmlns:v="https://vecta.io/nano"><path d="M90.1 40H10v80.1h80.1V40z" fill="#d74a2a"/><path d="M71.4 56.2v28.1c0 6.3-1.9 11.4-5.6 15.2s-9 5.7-15.7 5.7-12-1.9-15.8-5.7c-3.7-3.8-5.6-8.9-5.6-15.2V56.2h11.5v27.9c0 3.2.8 5.8 2.5 7.7 1.7 2 4.1 3 7.3 3s5.6-1 7.3-3 2.5-4.5 2.5-7.7V56.2h11.5.1z" fill="#fff"/><path d="M178.3 40H98.2v80.1h80.1V40zm88.2 0h-80.1v80.1h80.1V40zm88.1 0h-80.1v80.1h80.1V40z" fill="#d74a2a"/><path d="M163.8 56v48.1h-11.4V75.9l-14.1 19.3-14.1-19.3v28.2h-11.4V56h10.8l14.7 21.4L152.9 56h10.9zm68 37.1c1.3-1.3 2-3 2-5.1s-.7-3.7-2-5c-1.3-1.4-3.1-2-5.4-2s-4 .7-5.3 2c-1.4 1.3-2.1 3-2.1 5.1s.7 3.8 2 5.1c1.4 1.3 3.2 2 5.4 2s4-.7 5.4-2m8.6-17c3.2 3.1 4.8 7 4.8 11.7s-1.8 9.1-5.3 12.4-8 4.9-13.4 4.9-9.8-1.6-13.4-4.9-5.4-7.4-5.4-12.4 1.1-6.6 3.4-10.2l13.6-21.6h12.8L228.1 71c5 .4 9.1 2.1 12.2 5.2m81.5 2.1c1.3-1.4 1.9-3.1 1.9-4.9a7.42 7.42 0 0 0-1.8-4.9 5.88 5.88 0 0 0-4.6-2.1h-11.6v14.1h11.1c2 0 3.7-.7 5-2.1m8.2-17.1c3.2 3.5 4.8 7.5 4.8 12s-1.6 8.6-4.8 12.1-7.5 5.3-12.9 5.3h-11.4v13.4h-11.3V56h23.1c5.1 0 9.3 1.8 12.5 5.3z" fill="#fff"/><path d="M396 20V138" stroke="#d1451e" stroke-width="2"/><g fill="#010101"><path d="M480.417 82.906c.298 0 .595.117.893.176l1.607-15.216c-.298 0-.595-.118-.893-.118h-.476l1.131-10.868c.119-.059.179-.176.238-.294 0-.235-.119-.411-.357-.47s-.417.117-.476.352c0 .117 0 .235.119.352l-2.738 25.966c.297 0 .595.059.892.118h.06zm-6.012-26.083l2.798 25.966h.893.892l-1.666-15.215h-.893-.476l-1.191-10.868c.119-.059.179-.235.119-.352 0-.235-.238-.352-.476-.352s-.417.235-.357.47c0 .117.119.235.238.294l.119.059zm-7.679 1.586l8.215 24.85c.297-.117.595-.176.893-.235l.893-.176-4.822-14.569c-.298.059-.595.176-.893.235-.119 0-.297.059-.416.118l-3.453-10.398c.06-.117.119-.235.06-.352-.06-.235-.298-.352-.536-.235s-.357.294-.238.529c0 .117.178.235.297.235zm-7.202 3.172l13.274 22.618c.238-.176.536-.294.774-.411l.833-.352-7.738-13.218c-.298.118-.536.294-.774.411-.119.059-.238.117-.417.235l-5.535-9.458c0-.117.059-.235 0-.352-.119-.176-.357-.235-.536-.117s-.238.352-.119.529c.059.117.178.176.298.176l-.06-.059zm-6.369 4.582l7.381 8.107 10.298 11.279c.238-.176.476-.411.714-.587l.714-.529-10.357-11.338c-.238.176-.476.352-.714.588-.119.117-.238.176-.357.294l-7.441-8.107c0-.118 0-.294-.06-.353-.119-.176-.416-.176-.595 0-.178.118-.178.411 0 .588.119.117.238.117.357.117l.06-.059zm-5.298 5.816l8.988 6.404 12.5 8.93.536-.705c.179-.235.417-.47.595-.646l-12.559-8.988c-.179.235-.357.47-.595.705-.06.117-.179.235-.298.352l-8.988-6.403c0-.118 0-.235-.179-.353s-.416-.059-.595.059-.06.411.059.587c.12.059.239.059.358 0l.178.059zm-4.286 6.756h.358l24.226 10.575c.119-.294.238-.529.417-.764.119-.294.297-.529.476-.764l-14.167-6.227-.417.764c-.119.235-.119.294-.178.411l-10.119-4.406c0-.117-.119-.235-.238-.294-.179-.117-.477 0-.536.176a.39.39 0 0 0 .178.529zm-2.44 7.461c.119 0 .298 0 .357-.118l25.893 5.405c.06-.294.119-.588.238-.881a3.39 3.39 0 0 1 .298-.823l-15.179-3.172c-.059.294-.178.588-.238.881a1.07 1.07 0 0 1-.119.411l-10.833-2.232c0-.118-.119-.235-.298-.235-.238 0-.417.117-.476.294 0 .235.119.411.297.47h.06zm10.655 7.637h15.417v-.881c0-.294 0-.587.119-.881h-15.477v.881.47h-11.071c-.06-.118-.179-.176-.357-.176-.238 0-.417.176-.417.411s.179.411.417.411.238-.059.357-.176h11.071l-.059-.059zm15.655 2.292l-.179-.881c0-.294-.059-.587-.059-.881l-15.179 3.172c0 .294.059.588.119.881 0 .117.059.294.059.411l-10.833 2.291c-.119-.117-.238-.117-.357-.117-.238 0-.357.235-.298.47s.238.352.476.293c.12 0 .239-.117.298-.235l25.893-5.463.06.059zm.714 2.173l-.357-.822c-.119-.294-.179-.588-.298-.822l-14.167 6.227c.119.294.239.529.298.823 0 .117.119.294.179.411l-10.119 4.465c-.12-.059-.239-.117-.358 0-.178.117-.297.352-.178.529s.357.293.536.176c.119 0 .178-.176.238-.294l24.166-10.633.06-.059zm1.19 1.998c-.178-.235-.357-.47-.476-.764-.178-.235-.297-.529-.416-.764l-12.5 8.989c.178.235.297.47.476.763.059.118.178.235.238.353l-8.929 6.403h-.357c-.179.118-.238.411-.06.588.12.176.358.235.596.117.119-.059.178-.235.178-.352l21.429-15.392-.179.059zm-8.75 13.042l10.298-11.339c-.238-.176-.417-.411-.655-.646-.178-.235-.416-.47-.595-.646l-10.357 11.397c.178.235.417.411.655.646.119.118.238.176.297.294l-7.381 8.107c-.119 0-.297 0-.357.117a.53.53 0 0 0 0 .588.55.55 0 0 0 .595 0c.119-.118.119-.235.06-.353l7.381-8.107.059-.058zm4.524 3.231l7.679-13.16c-.238-.117-.536-.294-.774-.47l-.714-.528-7.738 13.276c.238.177.476.353.773.47.12.059.239.177.417.235l-5.536 9.459c-.119 0-.238.059-.297.176a.43.43 0 0 0 .119.529c.178.117.476 0 .536-.118a.37.37 0 0 0 0-.352l5.535-9.459v-.058zm9.822-12.22c-.298-.117-.595-.176-.834-.294l-.833-.352-4.762 14.569c.298.118.536.235.834.294.119 0 .297.118.416.118l-3.393 10.398c-.119 0-.238.117-.297.235-.06.235 0 .47.238.529s.476 0 .535-.235c0-.118 0-.294-.059-.353l8.155-24.85v-.059zm1.428.353c-.297 0-.595-.118-.892-.177l-1.608 15.216c.298 0 .596.118.893.118h.476l-1.131 10.927c-.119 0-.178.176-.238.293 0 .235.119.412.358.47s.416-.117.476-.352c0-.118 0-.235-.119-.353l2.738-25.966c-.298 0-.595-.059-.893-.118l-.06-.058zm6.012 26.084l-2.797-25.967h-.893-.893l1.607 15.216h.893.476l1.191 10.868c-.119.059-.179.176-.119.353 0 .234.238.411.476.352.238 0 .417-.235.357-.47 0-.117-.119-.235-.238-.294l-.06-.058z"/><path d="M490.06 129.141l-3.452-10.399-4.762-14.452c-.298.118-.596.177-.834.235l-.893.177 4.822 14.569c.297-.059.595-.176.893-.235.119 0 .297-.117.416-.117l3.453 10.398c-.06.117-.119.235-.06.352.06.235.298.353.536.235.238-.058.357-.293.238-.528 0-.118-.178-.235-.298-.235h-.059zm7.202-3.173l-13.274-22.618c-.238.177-.535.294-.773.412l-.834.352 7.738 13.218c.239-.117.536-.235.774-.411.119-.059.238-.117.417-.235l5.536 9.459c0 .117-.06.235 0 .352a.39.39 0 0 0 .535.117c.179-.117.239-.352.119-.528-.059-.118-.178-.176-.357-.176l.119.058zm6.37-4.582l-7.381-8.107-10.298-11.28-.714.588-.715.528 10.357 11.339c.239-.177.477-.353.715-.588.119-.117.238-.176.357-.293l7.44 8.107c0 .117 0 .235.06.352.119.176.417.176.595 0s.179-.411 0-.587c-.119-.118-.238-.118-.357-.118l-.059.059zm5.297-5.757L487.5 100.296l-.535.705c-.179.235-.417.47-.596.646l12.56 8.988.536-.705c.119-.117.178-.235.238-.352l8.988 6.403c0 .118 0 .235.179.353s.416.117.595-.118c.119-.176.119-.411-.119-.587-.119-.059-.238-.118-.357 0h-.06zm.655-44.002c-.119-.176-.417-.235-.595-.059-.119.059-.179.235-.179.352l-8.929 6.403-12.44 8.93c.178.235.357.47.476.764.179.235.298.529.417.764l12.559-8.988c-.178-.235-.297-.47-.476-.764-.059-.117-.178-.235-.238-.352l8.929-6.462h.357c.178-.117.238-.352.119-.587z"/><path d="M496.191 74.271l-10.298 11.338c.238.176.417.411.655.588.179.235.417.47.595.646L497.5 75.445c-.178-.235-.416-.411-.654-.646-.119-.117-.238-.176-.357-.294l7.381-8.107c.119 0 .238 0 .357-.118a.53.53 0 0 0 0-.588.55.55 0 0 0-.596 0c-.119.118-.119.235-.059.353l-7.381 8.107v.117zm-4.524-3.232l-7.679 13.159a5.4 5.4 0 0 1 .774.47l.715.529 7.738-13.277c-.238-.176-.476-.294-.774-.47-.119-.059-.238-.176-.417-.235l5.536-9.458c.119 0 .238-.059.357-.176a.43.43 0 0 0-.119-.529c-.119-.059-.476 0-.536.117a.37.37 0 0 0 0 .352l-5.535 9.458-.06.059zm-9.821 12.22c.297.118.595.176.833.294l.833.353 4.762-14.569c-.297-.118-.535-.235-.833-.294-.119 0-.298-.117-.417-.117l3.393-10.398c.119 0 .238-.117.298-.235.059-.235 0-.47-.238-.529s-.477 0-.536.235c0 .117 0 .294.059.352l-8.154 24.85v.059zm46.786 4.817c-.357 2.409-2.679 4.112-5.477 4.112s-5.892-2.467-5.892-5.816 2.5-5.816 5.892-5.816 5.06 1.763 5.477 4.23l-2.441.294c-.297-1.351-1.547-2.291-2.976-2.291s-3.333 1.469-3.333 3.642 1.369 3.642 3.333 3.642 2.619-.94 2.976-2.232l2.441.294v-.059zm5.774 4.054c-2.619 0-4.405-1.704-4.405-4.23s1.786-4.23 4.405-4.23 4.404 1.704 4.404 4.23-1.785 4.23-4.404 4.23zm0-6.403c-1.191 0-2.084.94-2.084 2.174s.893 2.174 2.084 2.174 2.083-.94 2.083-2.174-.893-2.174-2.083-2.174zm8.393 6.109h-2.322V80.498h2.322v11.338zm4.285 0h-2.321V80.498h2.321v11.338zm7.917-2.467l2.024.47c-.417 1.351-2.024 2.35-3.929 2.35s-4.345-1.762-4.345-4.288 1.786-4.171 4.345-4.171 4.286 1.704 4.286 4.171v.705h-6.19c.178 1.058.952 1.821 2.023 1.821s1.548-.47 1.846-1.058h-.06zm0-2.174c-.119-.999-.893-1.704-1.964-1.704s-1.726.705-1.905 1.704h3.929-.06zm6.131 5.287c.238.764 1.012 1.351 1.905 1.351s2.024-.764 2.024-2.174v-.94c-.596.764-1.548 1.175-2.619 1.175-2.203 0-3.75-1.645-3.75-3.995s1.547-4.23 3.75-4.23 2.023.47 2.619 1.234v-.94h2.321v7.755c0 2.409-1.726 3.936-4.226 3.936s-3.75-1.175-4.107-2.879l2.083-.294zm3.988-4.582c0-1.293-.893-2.174-2.083-2.174s-2.084.94-2.084 2.174.893 2.115 2.084 2.115 2.083-.881 2.083-2.115zm10.179 1.469l2.024.47c-.417 1.351-2.024 2.35-3.929 2.35s-4.345-1.762-4.345-4.288 1.786-4.171 4.345-4.171 4.286 1.704 4.286 4.171v.705h-6.191c.179 1.058.953 1.821 2.024 1.821s1.548-.47 1.845-1.058h-.059zm0-2.174c-.119-.999-.893-1.704-1.964-1.704s-1.727.705-1.905 1.704h3.928-.059zm12.619 4.935c-2.381 0-4.107-1.704-4.107-4.112s1.726-4.171 4.107-4.171 4.107 1.762 4.107 4.171-1.726 4.112-4.107 4.112zm0-7.52c-1.905 0-3.274 1.41-3.274 3.349s1.369 3.349 3.274 3.349 3.274-1.41 3.274-3.349-1.369-3.349-3.274-3.349zm9.941-3.349a4.69 4.69 0 0 0-.953-.117c-.714 0-1.19.47-1.19 1.293v1.704h2.083v.705h-2.083v6.932h-.834v-6.932h-1.309v-.705h1.309v-1.762c0-1.292.774-2.056 1.905-2.056s.834.059 1.131.176v.764h-.059zm-69.227 22.089c-.357 2.409-2.679 4.113-5.477 4.113s-5.892-2.468-5.892-5.816 2.5-5.816 5.892-5.816 5.06 1.763 5.477 4.23l-2.441.293c-.297-1.351-1.547-2.291-2.976-2.291s-3.333 1.527-3.333 3.642 1.369 3.643 3.333 3.643 2.619-.94 2.976-2.233l2.441.294v-.059zm5.774 4.054c-2.619 0-4.405-1.704-4.405-4.23s1.786-4.23 4.405-4.23 4.404 1.704 4.404 4.23-1.785 4.23-4.404 4.23zm0-6.403c-1.191 0-2.084.94-2.084 2.173s.893 2.174 2.084 2.174 2.083-.94 2.083-2.174-.893-2.173-2.083-2.173zm6.071-1.704h2.203v.94c.476-.764 1.369-1.234 2.321-1.234s2.083.529 2.559 1.41c.536-.881 1.548-1.351 2.679-1.351 1.786 0 3.036 1.292 3.036 3.172v4.935h-2.322v-4.465c0-.94-.595-1.645-1.488-1.645s-1.488.705-1.488 1.645v4.465h-2.321v-4.465c0-.998-.536-1.645-1.429-1.645s-1.428.647-1.428 1.645v4.465h-2.322v-7.813-.059zm17.024 11.338h-2.321V99.297h2.321v.94c.595-.764 1.548-1.234 2.619-1.234 2.203 0 3.75 1.763 3.75 4.23s-1.547 4.23-3.75 4.23-2.024-.47-2.619-1.234v4.465-.059zm1.964-9.576c-1.19 0-2.083.94-2.083 2.174s.893 2.174 2.083 2.174 2.084-.94 2.084-2.174-.893-2.174-2.084-2.174zm5.893 3.114v-4.876h2.322v4.465c0 .94.535 1.645 1.488 1.645s1.667-.705 1.667-1.704v-4.406h2.321v7.813h-2.262v-1.057c-.536.822-1.488 1.351-2.5 1.351-1.786 0-2.976-1.351-2.976-3.231h-.06zm10.358-3.172h-1.131v-1.763h1.25l.238-1.939h1.964v1.939h1.786v1.763h-1.786v3.289c0 .647.417 1.117 1.071 1.117s.536 0 .834-.118v1.821c-.476.177-1.131.235-1.607.235-1.548 0-2.619-1.175-2.619-2.82v-3.524zm7.202-5.346c.774 0 1.369.529 1.369 1.292s-.536 1.293-1.369 1.293-1.369-.529-1.369-1.293.536-1.292 1.369-1.292zm1.19 11.455h-2.321v-7.813h2.321v7.813zm9.941-4.876v4.876h-2.321v-4.465c0-.939-.536-1.644-1.489-1.644s-1.666.705-1.666 1.703v4.406h-2.322v-7.813h2.262v1.057c.536-.822 1.488-1.351 2.5-1.351 1.786 0 2.977 1.351 2.977 3.231h.059zm3.988 5.523c.238.763 1.012 1.351 1.905 1.351s2.024-.764 2.024-2.174v-.94c-.595.764-1.488 1.175-2.619 1.175-2.203 0-3.75-1.645-3.75-3.995s1.547-4.23 3.75-4.23 2.024.47 2.619 1.234v-.94h2.321v7.755c0 2.408-1.726 3.936-4.226 3.936s-3.75-1.175-4.107-2.879l2.083-.352v.059zm3.988-4.583c0-1.292-.893-2.173-2.083-2.173s-2.083.94-2.083 2.173.892 2.115 2.083 2.115 2.083-.881 2.083-2.115z"/></g><path d="M429.053 40.146c.821.147 1.518.579 2.09 1.298s.858 1.533.858 2.442c0 .777-.206 1.481-.616 2.112-.396.616-.976 1.107-1.738 1.474-.763.352-1.65.528-2.662.528h-6.116V32.71h5.83c1.041 0 1.936.176 2.684.528s1.312.829 1.694 1.43c.381.587.572 1.247.572 1.98 0 .88-.235 1.613-.704 2.2s-1.1 1.019-1.892 1.298zm-5.676-1.012h3.102c.821 0 1.459-.183 1.914-.55.469-.381.704-.924.704-1.628 0-.689-.235-1.225-.704-1.606-.455-.396-1.093-.594-1.914-.594h-3.102v4.378zm3.388 6.82c.85 0 1.518-.205 2.002-.616s.726-.983.726-1.716c0-.748-.257-1.342-.77-1.782s-1.196-.66-2.046-.66h-3.3v4.774h3.388zm9.237-11.682c-.454 0-.836-.154-1.144-.462s-.462-.689-.462-1.144.154-.836.462-1.144.69-.462 1.144-.462c.44 0 .814.154 1.122.462s.462.689.462 1.144-.154.836-.462 1.144-.682.462-1.122.462zm1.232 1.606V48h-2.508V35.878h2.508zm8.551 12.32c-1.144 0-2.178-.257-3.102-.77-.924-.528-1.65-1.261-2.178-2.2-.528-.953-.792-2.053-.792-3.3 0-1.232.271-2.325.814-3.278s1.283-1.687 2.222-2.2 1.987-.77 3.146-.77 2.207.257 3.146.77 1.679 1.247 2.222 2.2.814 2.046.814 3.278-.279 2.325-.836 3.278-1.32 1.694-2.288 2.222c-.953.513-2.009.77-3.168.77zm0-2.178a3.67 3.67 0 0 0 1.804-.462c.572-.308 1.034-.77 1.386-1.386s.528-1.364.528-2.244-.169-1.621-.506-2.222c-.337-.616-.785-1.078-1.342-1.386a3.67 3.67 0 0 0-1.804-.462 3.67 3.67 0 0 0-1.804.462c-.543.308-.975.77-1.298 1.386-.323.601-.484 1.342-.484 2.222 0 1.305.33 2.317.99 3.036.675.704 1.518 1.056 2.53 1.056zm10.047-11.748c-.454 0-.836-.154-1.144-.462s-.462-.689-.462-1.144.154-.836.462-1.144.69-.462 1.144-.462c.44 0 .814.154 1.122.462s.462.689.462 1.144-.154.836-.462 1.144-.682.462-1.122.462zm1.232 1.606V48h-2.508V35.878h2.508zm9.409-.198c.953 0 1.804.198 2.552.594.763.396 1.357.983 1.782 1.76s.638 1.716.638 2.816V48h-2.486v-6.776c0-1.085-.271-1.914-.814-2.486-.543-.587-1.283-.88-2.222-.88s-1.687.293-2.244.88c-.543.572-.814 1.401-.814 2.486V48h-2.508V35.878h2.508v1.386a4.17 4.17 0 0 1 1.562-1.166c.645-.279 1.327-.418 2.046-.418zm13.253 2.244h-2.244V48h-2.53V37.924h-1.43v-2.046h1.43v-.858c0-1.393.367-2.405 1.1-3.036.748-.645 1.914-.968 3.498-.968v2.09c-.763 0-1.298.147-1.606.44-.308.279-.462.77-.462 1.474v.858h2.244v2.046zm7.481 10.274c-1.144 0-2.178-.257-3.102-.77-.924-.528-1.65-1.261-2.178-2.2-.528-.953-.792-2.053-.792-3.3 0-1.232.271-2.325.814-3.278s1.283-1.687 2.222-2.2 1.987-.77 3.146-.77 2.207.257 3.146.77 1.679 1.247 2.222 2.2.814 2.046.814 3.278-.279 2.325-.836 3.278a5.85 5.85 0 0 1-2.288 2.222c-.954.513-2.01.77-3.168.77zm0-2.178c.645 0 1.246-.154 1.804-.462.572-.308 1.034-.77 1.386-1.386s.528-1.364.528-2.244-.169-1.621-.506-2.222c-.338-.616-.785-1.078-1.342-1.386s-1.159-.462-1.804-.462-1.247.154-1.804.462c-.543.308-.976.77-1.298 1.386-.323.601-.484 1.342-.484 2.222 0 1.305.33 2.317.99 3.036.674.704 1.518 1.056 2.53 1.056zm11.279-8.382c.367-.616.851-1.093 1.452-1.43.616-.352 1.342-.528 2.178-.528v2.596h-.638c-.983 0-1.731.249-2.244.748-.499.499-.748 1.364-.748 2.596V48h-2.508V35.878h2.508v1.76zm20.609-1.958c.954 0 1.804.198 2.552.594.763.396 1.357.983 1.782 1.76.44.777.66 1.716.66 2.816V48h-2.486v-6.776c0-1.085-.271-1.914-.814-2.486-.542-.587-1.283-.88-2.222-.88s-1.686.293-2.244.88c-.542.572-.814 1.401-.814 2.486V48h-2.486v-6.776c0-1.085-.271-1.914-.814-2.486-.542-.587-1.283-.88-2.222-.88s-1.686.293-2.244.88c-.542.572-.814 1.401-.814 2.486V48h-2.508V35.878h2.508v1.386c.411-.499.932-.887 1.562-1.166s1.306-.418 2.024-.418c.968 0 1.834.205 2.596.616s1.35 1.005 1.76 1.782c.367-.733.939-1.313 1.716-1.738a5.01 5.01 0 0 1 2.508-.66zm7.35 6.204c0-1.217.249-2.295.748-3.234.513-.939 1.203-1.665 2.068-2.178.88-.528 1.848-.792 2.904-.792.953 0 1.782.191 2.486.572.719.367 1.291.829 1.716 1.386v-1.76h2.53V48h-2.53v-1.804c-.425.572-1.005 1.049-1.738 1.43s-1.569.572-2.508.572c-1.041 0-1.995-.264-2.86-.792-.865-.543-1.555-1.291-2.068-2.244-.499-.968-.748-2.061-.748-3.278zm9.922.044c0-.836-.176-1.562-.528-2.178-.337-.616-.785-1.085-1.342-1.408a3.54 3.54 0 0 0-1.804-.484 3.54 3.54 0 0 0-1.804.484c-.557.308-1.012.77-1.364 1.386-.337.601-.506 1.32-.506 2.156s.169 1.569.506 2.2c.352.631.807 1.115 1.364 1.452.572.323 1.173.484 1.804.484a3.54 3.54 0 0 0 1.804-.484c.557-.323 1.005-.792 1.342-1.408.352-.631.528-1.364.528-2.2zm8.75-4.004v6.71c0 .455.103.785.308.99.22.191.587.286 1.1.286h1.54V48h-1.98c-1.129 0-1.995-.264-2.596-.792s-.902-1.386-.902-2.574v-6.71h-1.43v-2.046h1.43v-3.014h2.53v3.014h2.948v2.046h-2.948zm6.536-3.652c-.455 0-.836-.154-1.144-.462s-.462-.689-.462-1.144.154-.836.462-1.144.689-.462 1.144-.462c.44 0 .814.154 1.122.462s.462.689.462 1.144-.154.836-.462 1.144-.682.462-1.122.462zm1.232 1.606V48h-2.508V35.878h2.508zm2.456 6.05c0-1.247.25-2.339.748-3.278.514-.953 1.218-1.687 2.112-2.2s1.922-.77 3.08-.77c1.467 0 2.677.352 3.63 1.056.968.689 1.621 1.679 1.958 2.97h-2.706c-.22-.601-.572-1.071-1.056-1.408s-1.092-.506-1.826-.506c-1.026 0-1.848.367-2.464 1.1-.601.719-.902 1.731-.902 3.036s.301 2.325.902 3.058c.616.733 1.438 1.1 2.464 1.1 1.452 0 2.413-.638 2.882-1.914h2.706c-.352 1.232-1.012 2.215-1.98 2.948-.968.719-2.17 1.078-3.608 1.078-1.158 0-2.185-.257-3.08-.77-.894-.528-1.598-1.261-2.112-2.2-.498-.953-.748-2.053-.748-3.3zm18.428 6.27c-.954 0-1.812-.169-2.574-.506-.748-.352-1.342-.821-1.782-1.408a3.56 3.56 0 0 1-.704-2.002h2.596c.044.513.286.946.726 1.298.454.337 1.019.506 1.694.506.704 0 1.246-.132 1.628-.396.396-.279.594-.631.594-1.056 0-.455-.22-.792-.66-1.012-.426-.22-1.108-.462-2.046-.726l-2.222-.726c-.572-.235-1.071-.594-1.496-1.078-.411-.484-.616-1.122-.616-1.914a2.93 2.93 0 0 1 .572-1.76c.381-.543.924-.968 1.628-1.276.718-.308 1.54-.462 2.464-.462 1.378 0 2.486.352 3.322 1.056.85.689 1.305 1.635 1.364 2.838h-2.508c-.044-.543-.264-.975-.66-1.298s-.932-.484-1.606-.484c-.66 0-1.166.125-1.518.374s-.528.579-.528.99a1.07 1.07 0 0 0 .352.814c.234.22.52.396.858.528l1.496.462c.88.235 1.598.477 2.156.726.572.235 1.063.587 1.474 1.056s.623 1.093.638 1.87c0 .689-.191 1.305-.572 1.848s-.924.968-1.628 1.276c-.69.308-1.504.462-2.442.462zm15.575-2.222h5.17V48h-7.678V32.71h2.508v13.266zm6.431-4.092c0-1.217.249-2.295.748-3.234.513-.939 1.203-1.665 2.068-2.178.88-.528 1.848-.792 2.904-.792.953 0 1.782.191 2.486.572.719.367 1.291.829 1.716 1.386v-1.76h2.53V48h-2.53v-1.804c-.425.572-1.005 1.049-1.738 1.43s-1.569.572-2.508.572c-1.041 0-1.995-.264-2.86-.792-.865-.543-1.555-1.291-2.068-2.244-.499-.968-.748-2.061-.748-3.278zm9.922.044c0-.836-.176-1.562-.528-2.178-.337-.616-.785-1.085-1.342-1.408a3.54 3.54 0 0 0-1.804-.484 3.54 3.54 0 0 0-1.804.484c-.557.308-1.012.77-1.364 1.386-.337.601-.506 1.32-.506 2.156s.169 1.569.506 2.2c.352.631.807 1.115 1.364 1.452.572.323 1.173.484 1.804.484a3.54 3.54 0 0 0 1.804-.484c.557-.323 1.005-.792 1.342-1.408.352-.631.528-1.364.528-2.2zm8.332-4.246c.425-.587 1.005-1.063 1.738-1.43.748-.381 1.577-.572 2.486-.572 1.071 0 2.039.257 2.904.77s1.547 1.247 2.046 2.2c.499.939.748 2.017.748 3.234s-.249 2.31-.748 3.278c-.499.953-1.188 1.701-2.068 2.244-.865.528-1.826.792-2.882.792-.939 0-1.775-.183-2.508-.55-.719-.367-1.291-.836-1.716-1.408V48h-2.508V31.72h2.508v5.962zm7.37 4.202c0-.836-.176-1.555-.528-2.156-.337-.616-.792-1.078-1.364-1.386a3.54 3.54 0 0 0-1.804-.484c-.631 0-1.232.161-1.804.484-.557.323-1.012.792-1.364 1.408-.337.616-.506 1.342-.506 2.178s.169 1.569.506 2.2c.352.616.807 1.085 1.364 1.408.572.323 1.173.484 1.804.484a3.54 3.54 0 0 0 1.804-.484c.572-.337 1.027-.821 1.364-1.452.352-.631.528-1.364.528-2.2z" fill="#000"/></svg>